<svg width="24" height="24" viewBox="0 0 32 32" fill="none" xmlns="http://www.w3.org/2000/svg">
    <path d="M16 3C8.83158 3 3 8.83158 3 16C3 23.1684 8.83158 29 16 29C23.1684 29 29 23.1684 29 16C29 8.83158 23.1684 3 16 3ZM16 5.16667C21.9963 5.16667 26.8333 10.0038 26.8333 16C26.8333 21.9963 21.9963 26.8333 16 26.8333C10.0038 26.8333 5.16667 21.9963 5.16667 16C5.16667 10.0038 10.0038 5.16667 16 5.16667ZM14.9167 9.5V18.1667H17.0833V9.5H14.9167ZM14.9167 20.3333V22.5H17.0833V20.3333H14.9167Z" fill="white"/>
</svg>
