<svg width="24" height="24" viewBox="0 0 16 14" fill="none" xmlns="http://www.w3.org/2000/svg">
    <path d="M0.125 0.8125V13.1875H15.875V0.8125H0.125ZM1.25 1.9375H14.75V9.75963L11.7794 6.77162L11.375 6.36719L8.82631 8.91588L5.59194 5.64662L5.1875 5.24219L1.25 9.17969V1.9375ZM12.5 3.0625C12.2016 3.0625 11.9155 3.18103 11.7045 3.39201C11.4935 3.60298 11.375 3.88913 11.375 4.1875C11.375 4.48587 11.4935 4.77202 11.7045 4.98299C11.9155 5.19397 12.2016 5.3125 12.5 5.3125C12.7984 5.3125 13.0845 5.19397 13.2955 4.98299C13.5065 4.77202 13.625 4.48587 13.625 4.1875C13.625 3.88913 13.5065 3.60298 13.2955 3.39201C13.0845 3.18103 12.7984 3.0625 12.5 3.0625V3.0625ZM5.1875 6.84194L10.3557 12.0625H1.25V10.7794L5.1875 6.84194ZM11.375 7.96694L14.75 11.3419V12.0625H11.9549L9.61719 9.70675L11.375 7.96694Z" fill="#AAAAAA"/>
</svg>
