<svg width="18" height="18" viewBox="0 0 18 18" fill="none" xmlns="http://www.w3.org/2000/svg">
    <path d="M9 0.875C4.5 0.875 0.875 4.5 0.875 9C0.875 13.5 4.5 17.125 9 17.125C13.5 17.125 17.125 13.5 17.125 9C17.125 8.12625 17.0075 7.25438 16.695 6.44125L15.68 7.4375C15.805 7.9375 15.8756 8.43875 15.8756 9C15.8756 12.8138 12.8144 15.875 9.00062 15.875C5.18687 15.875 2.125 12.8138 2.125 9C2.125 5.18625 5.18625 2.125 9 2.125C10.875 2.125 12.5594 2.87187 13.7462 4.05875L14.625 3.18C13.1875 1.74125 11.1875 0.875 9 0.875ZM16.0506 3.55063L9 10.6019L6.32437 7.92563L5.42563 8.82437L8.55063 11.9494L9 12.3788L9.44937 11.9494L16.9494 4.44937L16.0506 3.55063Z" fill="white"/>
</svg>
